<mxfile host="Electron" modified="2023-04-26T13:35:02.968Z" agent="Mozilla/5.0 (Macintosh; Intel Mac OS X 10_15_7) AppleWebKit/537.36 (KHTML, like Gecko) draw.io/21.2.1 Chrome/112.0.5615.87 Electron/24.1.2 Safari/537.36" etag="2eHCqg0A6bgcGreMQRb8" version="21.2.1" type="device">
  <diagram name="Page-1" id="xKc_gqe19SuNlB93h_Jf">
    <mxGraphModel dx="1026" dy="743" grid="1" gridSize="10" guides="1" tooltips="1" connect="1" arrows="1" fold="1" page="1" pageScale="1" pageWidth="827" pageHeight="1169" math="0" shadow="0">
      <root>
        <mxCell id="0" />
        <mxCell id="1" parent="0" />
        <mxCell id="tbl4iOeIsYvzAcQzKebY-1" value="Client" style="shape=umlLifeline;perimeter=lifelinePerimeter;whiteSpace=wrap;html=1;container=0;dropTarget=0;collapsible=0;recursiveResize=0;outlineConnect=0;portConstraint=eastwest;newEdgeStyle={&quot;edgeStyle&quot;:&quot;elbowEdgeStyle&quot;,&quot;elbow&quot;:&quot;vertical&quot;,&quot;curved&quot;:0,&quot;rounded&quot;:0};" parent="1" vertex="1">
          <mxGeometry x="220" y="160" width="100" height="180" as="geometry" />
        </mxCell>
        <mxCell id="tbl4iOeIsYvzAcQzKebY-2" value="Backend" style="shape=umlLifeline;perimeter=lifelinePerimeter;whiteSpace=wrap;html=1;container=0;dropTarget=0;collapsible=0;recursiveResize=0;outlineConnect=0;portConstraint=eastwest;newEdgeStyle={&quot;edgeStyle&quot;:&quot;elbowEdgeStyle&quot;,&quot;elbow&quot;:&quot;vertical&quot;,&quot;curved&quot;:0,&quot;rounded&quot;:0};" parent="1" vertex="1">
          <mxGeometry x="460" y="160" width="100" height="180" as="geometry" />
        </mxCell>
        <mxCell id="tbl4iOeIsYvzAcQzKebY-3" value="" style="html=1;points=[];perimeter=orthogonalPerimeter;outlineConnect=0;targetShapes=umlLifeline;portConstraint=eastwest;newEdgeStyle={&quot;edgeStyle&quot;:&quot;elbowEdgeStyle&quot;,&quot;elbow&quot;:&quot;vertical&quot;,&quot;curved&quot;:0,&quot;rounded&quot;:0};" parent="tbl4iOeIsYvzAcQzKebY-2" vertex="1">
          <mxGeometry x="45" y="57" width="10" height="80" as="geometry" />
        </mxCell>
        <mxCell id="tbl4iOeIsYvzAcQzKebY-4" value="" style="html=1;points=[];perimeter=orthogonalPerimeter;outlineConnect=0;targetShapes=umlLifeline;portConstraint=eastwest;newEdgeStyle={&quot;edgeStyle&quot;:&quot;elbowEdgeStyle&quot;,&quot;elbow&quot;:&quot;vertical&quot;,&quot;curved&quot;:0,&quot;rounded&quot;:0};" parent="tbl4iOeIsYvzAcQzKebY-2" vertex="1">
          <mxGeometry x="50" y="110" width="10" height="20" as="geometry" />
        </mxCell>
        <mxCell id="tbl4iOeIsYvzAcQzKebY-5" value="create service &lt;br&gt;account&amp;nbsp;token &lt;br&gt;for technical &lt;br&gt;user" style="html=1;align=left;spacingLeft=2;endArrow=block;rounded=0;edgeStyle=orthogonalEdgeStyle;curved=0;rounded=0;" parent="tbl4iOeIsYvzAcQzKebY-2" target="tbl4iOeIsYvzAcQzKebY-4" edge="1">
          <mxGeometry relative="1" as="geometry">
            <mxPoint x="55" y="77" as="sourcePoint" />
            <Array as="points">
              <mxPoint x="85" y="77" />
              <mxPoint x="85" y="120" />
            </Array>
          </mxGeometry>
        </mxCell>
        <mxCell id="tbl4iOeIsYvzAcQzKebY-6" value="Cookies" style="shape=umlLifeline;perimeter=lifelinePerimeter;whiteSpace=wrap;html=1;container=0;dropTarget=0;collapsible=0;recursiveResize=0;outlineConnect=0;portConstraint=eastwest;newEdgeStyle={&quot;edgeStyle&quot;:&quot;elbowEdgeStyle&quot;,&quot;elbow&quot;:&quot;vertical&quot;,&quot;curved&quot;:0,&quot;rounded&quot;:0};" parent="1" vertex="1">
          <mxGeometry x="340" y="160" width="100" height="180" as="geometry" />
        </mxCell>
        <mxCell id="tbl4iOeIsYvzAcQzKebY-8" value="Identity Provider" style="shape=umlLifeline;perimeter=lifelinePerimeter;whiteSpace=wrap;html=1;container=0;dropTarget=0;collapsible=0;recursiveResize=0;outlineConnect=0;portConstraint=eastwest;newEdgeStyle={&quot;edgeStyle&quot;:&quot;elbowEdgeStyle&quot;,&quot;elbow&quot;:&quot;vertical&quot;,&quot;curved&quot;:0,&quot;rounded&quot;:0};" parent="1" vertex="1">
          <mxGeometry x="580" y="160" width="100" height="180" as="geometry" />
        </mxCell>
        <mxCell id="tbl4iOeIsYvzAcQzKebY-9" value="call /create-token with server admin password" style="html=1;verticalAlign=bottom;endArrow=block;edgeStyle=elbowEdgeStyle;elbow=vertical;curved=0;rounded=0;" parent="1" target="tbl4iOeIsYvzAcQzKebY-3" edge="1">
          <mxGeometry x="-0.0009" relative="1" as="geometry">
            <mxPoint x="270.07446808510645" y="227" as="sourcePoint" />
            <Array as="points">
              <mxPoint x="400" y="227" />
            </Array>
            <mxPoint as="offset" />
          </mxGeometry>
        </mxCell>
        <mxCell id="tbl4iOeIsYvzAcQzKebY-10" value="return service account token" style="html=1;verticalAlign=bottom;endArrow=open;dashed=1;endSize=8;edgeStyle=elbowEdgeStyle;elbow=vertical;curved=0;rounded=0;entryX=0.501;entryY=0.8;entryDx=0;entryDy=0;entryPerimeter=0;" parent="1" edge="1">
          <mxGeometry x="-0.0015" relative="1" as="geometry">
            <mxPoint x="270.10000000000014" y="285" as="targetPoint" />
            <Array as="points">
              <mxPoint x="270" y="285" />
            </Array>
            <mxPoint x="505" y="285" as="sourcePoint" />
            <mxPoint as="offset" />
          </mxGeometry>
        </mxCell>
      </root>
    </mxGraphModel>
  </diagram>
</mxfile>
